<?xml version="1.0" encoding="UTF-8"?>
<svg  viewBox="0 0 47 90" version="1.1" xmlns="http://www.w3.org/2000/svg" xmlns:xlink="http://www.w3.org/1999/xlink">
    <!-- Generator: Sketch 51.3 (57544) - http://www.bohemiancoding.com/sketch -->
    <title>noun_Door_1784910</title>
    <desc>Created with Sketch.</desc>
    <defs></defs>
    <g id="Page-1" stroke="none" stroke-width="1" fill="none" fill-rule="evenodd">
        <g class="" id="noun_Door_1784910" fill="#FFFFFF" fill-rule="nonzero">
            <path d="M28.88,0.09 L1.29,10.09 C0.539901585,10.321351 0.0208954386,11.0053126 -3.55271368e-15,11.79 L-3.55271368e-15,78.17 C0.0178192762,78.9557648 0.538035908,79.6413216 1.29,79.87 L28.88,89.87 C29.5124827,90.1400175 30.2475933,89.9215846 30.63,89.35 C30.9050087,89.0429213 31.0517546,88.6420545 31.04,88.23 L31.04,1.79 C31.0283803,1.25805163 30.7794022,0.759194457 30.3612905,0.430125049 C29.9431788,0.101055641 29.3997815,-0.0237159937 28.88,0.09 Z M27.63,85.68 L3.52,76.94 L3.52,13 L27.63,4.3 L27.63,85.68 Z" class="" id="Shape"></path>
            <path d="M46.26,11.8 L46.26,78.17 C46.243953,79.1352961 45.4652961,79.913953 44.5,79.93 L35.1,79.93 C34.1279788,79.93 33.34,79.1420212 33.34,78.17 C33.34,77.1979788 34.1279788,76.41 35.1,76.41 L42.74,76.41 L42.74,13.57 L35.1,13.57 C34.1766444,13.5004489 33.4629474,12.7309713 33.4629474,11.805 C33.4629474,10.8790287 34.1766444,10.1095511 35.1,10.04 L44.5,10.04 C45.4675077,10.0508111 46.2491889,10.8324923 46.26,11.8 Z" class="" id="Shape"></path>
            <ellipse class="" id="Oval" cx="22.97" cy="47.94" rx="2.28" ry="2.8"></ellipse>
        </g>
    </g>
</svg>